
<svg width="65px" height="77px" viewBox="0 0 65 77" version="1.1" xmlns="http://www.w3.org/2000/svg" xmlns:xlink="http://www.w3.org/1999/xlink">
    <!-- Generator: Sketch 46.2 (44496) - http://www.bohemiancoding.com/sketch -->
    <desc>Created with Sketch.</desc>
    <defs></defs>
    <g id="Page-1" stroke="none" stroke-width="1" fill="none" fill-rule="evenodd">
        <g id="Artboard" transform="translate(-39.000000, -15.000000)" fill-rule="nonzero">
            <g id="Happy-Man" transform="translate(39.000000, 15.000000)">
                <path d="M47.3357573,39 C46.9359113,40.425807 46.1298085,41.7044528 45.0157573,42.68 C40.7157573,47.56 38.4357573,53 40.2557573,59.62 C40.4725599,60.9517092 41.5707493,61.9631995 42.9157573,62.07 C45.6397708,62.4331666 48.2454972,63.4111689 50.5357573,64.93 C51.1457573,65.37 52.0057573,65.8 51.9357573,66.56 C51.8457573,67.56 50.7457573,67.17 50.1057573,67.31 C44.8557573,68.48 40.1057573,70.31 37.3857573,75.49 C36.7857573,76.65 36.0857573,76.25 35.5357573,75.41 C32.3557573,70.57 27.7357573,68.1 22.1457573,67.23 C20.5357573,66.98 20.8557573,66.23 21.6857573,65.47 C23.6042817,63.8539616 25.9409917,62.813883 28.4257573,62.47 C30.7057573,62.03 31.5057573,60.83 31.6257573,58.57 C31.9457573,52.73 29.0957573,48.41 25.3257573,44.46 C24.0157573,43.09 22.7357573,41.7 21.3257573,40.21 C22.1229016,39.8229433 23.0580176,39.8452967 23.8357573,40.27 C25.4557573,40.91 27.0057573,41.7 28.6257573,42.35 C30.4657573,43.09 31.8757573,45.74 33.7757573,44.93 C35.609663,44.1018808 37.3780747,43.1357731 39.0657573,42.04 C39.5700091,41.7520815 40.1028856,41.5174818 40.6557573,41.34 C42.7157573,40.64 44.8857573,40.32 47.3357573,39 Z" id="Shape" fill="#335899"></path>
                <path d="M24.780686,17.096282 C24.670686,18.966282 24.420686,21.096282 22.660686,21.846282 C20.660686,22.756282 18.610686,21.846282 17.010686,20.256282 C13.9953529,16.9185614 13.1666884,12.1449866 14.880686,7.98628196 C15.220686,7.30628196 15.620686,6.81628196 16.390686,7.06628196 C20.490686,8.37628196 24.990686,12.506282 24.780686,17.096282 Z" id="Shape" fill="#34AFE3"></path>
                <path d="M53.4,16.6831326 C53.18,20.8031326 51.66,24.1131326 47.56,25.6831326 C44.14,26.9931326 42.01,25.5831326 42,21.9631326 C42,17.7431326 44.42,15.0831326 47.93,13.2031326 C48,13.2031326 48.09,13.1531326 48.16,13.1131326 C52.7,11.0031326 53.71,11.7331326 53.4,16.6831326 Z" id="Shape" fill="#34AFE3"></path>
                <path d="M35.9698085,8.9662247 C35.8599024,11.5079401 34.7012723,13.8903733 32.7698085,15.5462247 C31.0998085,16.9862247 29.4498085,16.1062247 28.1898085,14.6962247 C25.6781936,11.7770406 25.2889971,7.588163 27.2198085,4.2562247 C27.5198085,3.7562247 27.8498085,3.2562247 28.2198085,2.7962247 C30.7998085,-0.993775298 31.9198085,-0.963775298 34.1298085,3.0862247 C35.1474641,4.89603852 35.7742864,6.89914461 35.9698085,8.9662247 Z" id="Shape" fill="#34AFE3"></path>
                <path d="M55.607707,39.4860051 C53.737707,39.1060051 51.327707,39.1960051 50.247707,36.9060051 C49.417707,35.1560051 50.737707,32.9060051 53.247707,31.1560051 C55.757707,29.4060051 61.757707,29.7260051 63.967707,31.5560051 C64.3860739,31.8303464 64.5766851,32.3454022 64.437707,32.8260051 C63.817707,35.7960051 59.027707,39.5160051 55.607707,39.4860051 Z" id="Shape" fill="#34AFE3"></path>
                <path d="M6.28089791,28 C8.22089791,28.35 10.1508979,28.51 11.7608979,29.67 C13.3708979,30.83 14.9708979,32.53 14.1908979,34.67 C13.4108979,36.81 11.1908979,37.6 9.06089791,37.43 C5.51412525,37.1721653 2.32269632,35.1817313 0.530897907,32.11 C-0.419102093,30.61 -0.0991020932,29.78 1.53089791,29.05 C3.16089791,28.32 4.76089791,28.45 6.28089791,28 Z" id="Shape" fill="#34AFE3"></path>
                <path d="M36.5683739,36.6618767 C37.7399995,36.7154486 37.7957476,36.8798103 37.6457476,39.2498103 C37.535699,40.810178 36.3297134,42.0707901 34.7757476,42.2498103 C33.1060551,42.7418084 31.3230502,41.9722568 30.5357476,40.4198103 C29.70018,39.0246907 29.853361,37.2510157 30.9157476,36.0198103 C31.0559315,35.8346421 32.0269687,34.3333177 32.6560491,34.736644 C33.2551399,35.1207428 33.9535258,37.1112614 34.3802641,37.0588808 C34.7919563,37.008347 36.1523287,36.5856133 36.5683739,36.6618767 Z" id="Shape" fill="#335899"></path>
                <path d="M35.3246683,34.8851474 C33.8936422,33.3947383 33.8624359,33.3627144 32.2762275,31.4326911 C34.5700975,31.4326911 35.9081542,31.4326911 37.6457476,31.6116165 C38.9323069,33.3467705 39.6289304,34.3827118 40.6493367,36.0198103 C38.9148373,35.4907881 38.3959898,35.4460848 37.4631563,35.292465 C36.9486105,35.2077292 36.149816,34.9613998 35.3246683,34.8851474 C35.3019309,34.8851474 35.2167318,34.9561248 35.2837677,34.971405 C35.7562922,35.0791127 38.3404036,35.4738691 39.5606521,35.8607522 C39.4797386,36.2554937 39.453211,36.449023 39.385682,36.8666516 C38.0619514,35.560713 36.9517257,35.7618486 34.9526645,35.8607522 C33.8777803,34.1049975 33.4622298,33.6183588 31.884836,33.6959722 C32.2762275,33.2027486 32.8516694,32.321993 32.9206661,32.407457 C32.9813588,32.482635 34.4966306,34.529803 35.2584076,34.971405 C35.2954254,34.8851474 35.2799988,34.9477081 35.3246683,34.8851474 Z" id="Shape-Copy" fill="#335899"></path>
                <path d="M52.0131463,49.7440248 C49.9757686,49.7629137 48.1150632,48.5902002 47.2531463,46.7440248 C46.7584726,45.9093769 47.0098905,44.8331318 47.8231463,44.3040248 C49.2806972,43.0021879 51.3513096,42.6415756 53.1631463,43.3740248 C55.0531463,44.1840248 57.3131463,45.4940248 56.9731463,47.3740248 C56.6331463,49.2540248 54.0331463,49.6840248 52.0131463,49.7440248 Z" id="Shape" fill="#34AFE3"></path>
                <path d="M40.6585333,21.758555 C40.6364499,22.3745932 40.5796934,22.988899 40.4885333,23.598555 C40.1285333,25.348555 37.8385333,27.228555 36.4285333,27.008555 C35.0185333,26.788555 33.6785333,24.168555 34.0685333,22.318555 C34.1904114,21.6682726 34.4202522,21.0429704 34.7485333,20.468555 C35.6885333,18.918555 36.7485333,16.678555 38.5485333,17.038555 C40.5885333,17.468555 40.3885333,20.028555 40.6585333,21.758555 Z" id="Shape" fill="#34AFE3"></path>
                <path d="M25.2342525,33.0791029 C25.4642525,34.7991029 24.5442525,35.4291029 22.7442525,35.3391029 C19.6942525,35.1991029 16.3342525,30.8591029 17.1142525,27.9891029 C17.2255065,27.5106197 17.6260934,27.1540973 18.1142525,27.0991029 C21.3442525,26.3891029 25.2442525,29.6091029 25.2342525,33.0791029 Z" id="Shape" fill="#34AFE3"></path>
                <path d="M13.0704047,46.5373945 C10.6904047,46.6173945 9.07040468,45.3073945 7.40040468,44.3173945 C6.84040468,43.9973945 6.95040468,43.5773945 7.23040468,43.0573945 C8.55040468,40.5873945 12.8204047,39.1773945 15.3404047,40.5173945 C16.3404047,41.0473945 17.5504047,41.6873945 17.3404047,43.0773945 C17.1304047,44.8273945 15.7404047,45.7073945 14.2604047,46.3473945 C13.875398,46.4695714 13.4743143,46.53361 13.0704047,46.5373945 Z" id="Shape" fill="#34AFE3"></path>
                <path d="M54.0236982,25.1879357 C54.0236982,22.6079357 57.3736982,20.3179357 59.6236982,21.1879357 C60.0265631,21.304299 60.3140401,21.6596524 60.3436982,22.0779357 C60.7036982,24.3479357 57.5336982,27.3079357 55.3436982,26.7979357 C54.2936982,26.5579357 53.8936982,25.9779357 54.0236982,25.1879357 Z" id="Shape" fill="#34AFE3"></path>
                <path d="M13.9305469,23.3431001 C14.0105469,24.5231001 13.4205469,25.0331001 12.1705469,25.0531001 C10.9239405,24.9720177 9.76848267,24.3718281 8.98530964,23.3985645 C8.20213661,22.425301 7.86304762,21.1681896 8.05054694,19.9331001 C8.08496544,19.4306129 8.4877203,19.0321426 8.99054694,19.0031001 C11.5269647,18.9125481 13.6937254,20.8161395 13.9305469,23.3431001 L13.9305469,23.3431001 Z" id="Shape" fill="#34AFE3"></path>
                <path d="M49.2950477,29.9456844 C49.0550477,32.5156844 47.9550477,33.7656844 46.2050477,34.4656844 C45.2550477,34.8456844 44.1050477,35.1056844 43.4350477,34.2056844 C42.7570873,33.1939395 42.8823514,31.8452632 43.7350477,30.9756844 C44.7101118,29.8151688 46.1215966,29.1094264 47.6350477,29.0256844 C48.8350477,28.8856844 49.3750477,29.3356844 49.2950477,29.9456844 Z" id="Shape" fill="#34AFE3"></path>
                <path d="M44.6438104,8.75206973 C44.7338104,10.7520697 44.3738104,12.3620697 42.6438104,13.2220697 C41.8238104,13.6220697 41.2038104,13.1620697 40.7238104,12.5320697 C39.5438104,10.9720697 39.9638104,9.41206973 40.8638104,7.91206973 C41.4638104,6.91206973 42.1838104,5.71206973 43.4938104,6.06206973 C44.8038104,6.41206973 44.5338104,7.94206973 44.6438104,8.75206973 Z" id="Shape" fill="#34AFE3"></path>
                <path d="M21.7839002,47 C22.6339002,47.07 23.7839002,47.28 23.6039002,48.58 C23.3339002,50.49 21.6539002,50.9 20.0739002,51.03 C19.3039002,51.08 18.0739002,51.12 18.0039002,49.84 C17.8939002,48.72 20.1339002,47 21.7839002,47 Z" id="Shape" fill="#34AFE3"></path>
            </g>
        </g>
    </g>
</svg>
